<?xml version="1.0" encoding="UTF-8" standalone="no"?>
<!-- Created with Inkscape (http://www.inkscape.org/) -->

<svg
   xmlns:dc="http://purl.org/dc/elements/1.1/"
   xmlns:cc="http://creativecommons.org/ns#"
   xmlns:rdf="http://www.w3.org/1999/02/22-rdf-syntax-ns#"
   xmlns:svg="http://www.w3.org/2000/svg"
   xmlns="http://www.w3.org/2000/svg"
   xmlns:xlink="http://www.w3.org/1999/xlink"
   xmlns:sodipodi="http://sodipodi.sourceforge.net/DTD/sodipodi-0.dtd"
   xmlns:inkscape="http://www.inkscape.org/namespaces/inkscape"
   width="599.56274"
   height="375.68207"
   id="svg5797"
   version="1.1"
   inkscape:version="0.47 r22583"
   sodipodi:docname="Roll_paper.svg"
   inkscape:export-filename="C:\Users\ASantos\Desktop\Minduka\Illustrations\Roll_paper.png"
   inkscape:export-xdpi="150"
   inkscape:export-ydpi="150">
  <defs
     id="defs5799">
    <inkscape:perspective
       sodipodi:type="inkscape:persp3d"
       inkscape:vp_x="0 : 526.18109 : 1"
       inkscape:vp_y="0 : 1000 : 0"
       inkscape:vp_z="744.09448 : 526.18109 : 1"
       inkscape:persp3d-origin="372.04724 : 350.78739 : 1"
       id="perspective5805" />
    <inkscape:perspective
       id="perspective5833"
       inkscape:persp3d-origin="0.5 : 0.33333333 : 1"
       inkscape:vp_z="1 : 0.5 : 1"
       inkscape:vp_y="0 : 1000 : 0"
       inkscape:vp_x="0 : 0.5 : 1"
       sodipodi:type="inkscape:persp3d" />
    <linearGradient
       inkscape:collect="always"
       xlink:href="#linearGradient4999"
       id="linearGradient5118"
       gradientUnits="userSpaceOnUse"
       gradientTransform="translate(-1201.6877,97.908685)"
       x1="972.44879"
       y1="812.73535"
       x2="884.9035"
       y2="855.26703" />
    <linearGradient
       id="linearGradient4999">
      <stop
         style="stop-color:#e1e1e1;stop-opacity:1;"
         offset="0"
         id="stop5001" />
      <stop
         style="stop-color:#ffffff;stop-opacity:1;"
         offset="1"
         id="stop5003" />
    </linearGradient>
    <linearGradient
       inkscape:collect="always"
       xlink:href="#linearGradient5009"
       id="linearGradient5120"
       gradientUnits="userSpaceOnUse"
       gradientTransform="translate(-1201.6877,97.908685)"
       x1="993.10522"
       y1="811.65491"
       x2="973.03363"
       y2="858.83368" />
    <linearGradient
       id="linearGradient5009">
      <stop
         style="stop-color:#000000;stop-opacity:1;"
         offset="0"
         id="stop5011" />
      <stop
         style="stop-color:#000000;stop-opacity:0;"
         offset="1"
         id="stop5013" />
    </linearGradient>
    <filter
       inkscape:collect="always"
       id="filter5017"
       color-interpolation-filters="sRGB">
      <feGaussianBlur
         inkscape:collect="always"
         stdDeviation="0.86577113"
         id="feGaussianBlur5019" />
    </filter>
    <linearGradient
       inkscape:collect="always"
       xlink:href="#linearGradient4989"
       id="linearGradient5122"
       gradientUnits="userSpaceOnUse"
       gradientTransform="translate(-1201.6877,97.908685)"
       x1="963.54669"
       y1="771.22882"
       x2="949.70264"
       y2="823.8363" />
    <linearGradient
       id="linearGradient4989">
      <stop
         style="stop-color:#ffffff;stop-opacity:1;"
         offset="0"
         id="stop4991" />
      <stop
         style="stop-color:#c6c6c6;stop-opacity:1;"
         offset="1"
         id="stop4993" />
    </linearGradient>
    <linearGradient
       inkscape:collect="always"
       xlink:href="#linearGradient3946-3"
       id="linearGradient5124"
       gradientUnits="userSpaceOnUse"
       x1="1044.9552"
       y1="810.63574"
       x2="1062.9519"
       y2="791.83008" />
    <linearGradient
       id="linearGradient3946-3">
      <stop
         style="stop-color:#d3d3d3;stop-opacity:1;"
         offset="0"
         id="stop3948-6" />
      <stop
         style="stop-color:#000000;stop-opacity:0;"
         offset="1"
         id="stop3950-2" />
    </linearGradient>
    <linearGradient
       inkscape:collect="always"
       xlink:href="#linearGradient4872"
       id="linearGradient5126"
       gradientUnits="userSpaceOnUse"
       x1="1055.1342"
       y1="787.6745"
       x2="1056.6139"
       y2="835.17554" />
    <linearGradient
       inkscape:collect="always"
       id="linearGradient4872">
      <stop
         style="stop-color:#ffffff;stop-opacity:1;"
         offset="0"
         id="stop4874" />
      <stop
         style="stop-color:#ffffff;stop-opacity:0;"
         offset="1"
         id="stop4876" />
    </linearGradient>
    <linearGradient
       inkscape:collect="always"
       xlink:href="#linearGradient3938-98"
       id="linearGradient5128"
       gradientUnits="userSpaceOnUse"
       x1="1050.7386"
       y1="787.8924"
       x2="1057.3497"
       y2="820.74408" />
    <linearGradient
       id="linearGradient3938-98">
      <stop
         style="stop-color:#272727;stop-opacity:1;"
         offset="0"
         id="stop3940-6" />
      <stop
         style="stop-color:#757575;stop-opacity:1;"
         offset="1"
         id="stop3942-62" />
    </linearGradient>
    <linearGradient
       inkscape:collect="always"
       xlink:href="#linearGradient3946-8"
       id="linearGradient5130"
       gradientUnits="userSpaceOnUse"
       x1="1048.8162"
       y1="783.96448"
       x2="1032.631"
       y2="826.22314" />
    <linearGradient
       inkscape:collect="always"
       id="linearGradient3946-8">
      <stop
         style="stop-color:#000000;stop-opacity:1;"
         offset="0"
         id="stop3948-2" />
      <stop
         style="stop-color:#000000;stop-opacity:0;"
         offset="1"
         id="stop3950-6" />
    </linearGradient>
    <filter
       color-interpolation-filters="sRGB"
       inkscape:collect="always"
       id="filter3958-2">
      <feGaussianBlur
         inkscape:collect="always"
         stdDeviation="0.34654688"
         id="feGaussianBlur3960-7" />
    </filter>
  </defs>
  <sodipodi:namedview
     id="base"
     pagecolor="#ffffff"
     bordercolor="#666666"
     borderopacity="1.0"
     inkscape:pageopacity="0.0"
     inkscape:pageshadow="2"
     inkscape:zoom="0.35"
     inkscape:cx="287.63852"
     inkscape:cy="139.2696"
     inkscape:document-units="px"
     inkscape:current-layer="layer1"
     showgrid="false"
     inkscape:window-width="1440"
     inkscape:window-height="850"
     inkscape:window-x="-8"
     inkscape:window-y="-8"
     inkscape:window-maximized="1" />
  <metadata
     id="metadata5802">
    <rdf:RDF>
      <cc:Work
         rdf:about="">
        <dc:format>image/svg+xml</dc:format>
        <dc:type
           rdf:resource="http://purl.org/dc/dcmitype/StillImage" />
        <dc:title></dc:title>
      </cc:Work>
    </rdf:RDF>
  </metadata>
  <g
     inkscape:label="Layer 1"
     inkscape:groupmode="layer"
     id="layer1"
     transform="translate(-37.36148,-295.94972)">
    <g
       transform="matrix(2.236055,0,0,2.236055,893.64906,-1561.504)"
       id="g5784">
      <path
         style="fill:url(#linearGradient5118);fill-opacity:1;stroke:#cccccc;stroke-width:2;stroke-linecap:butt;stroke-linejoin:miter;stroke-miterlimit:4;stroke-opacity:1;stroke-dasharray:none"
         d="m -284.45209,911.14399 c -28.9998,11.33635 -63.33233,16.00685 -97.49358,20.89145 67.9418,15.63365 77.83588,42.87675 106.94447,65.65904 74.72605,-15.7226 95.80395,-28.62159 121.86705,-41.78299 l -131.31794,-44.7675 z"
         id="path5096"
         sodipodi:nodetypes="ccccc" />
      <path
         style="fill:url(#linearGradient5120);fill-opacity:1;stroke:none;filter:url(#filter5017)"
         d="m -282.46242,911.64139 c 0,0 -27.70766,10.03575 -32.1844,11.03055 35.12653,11.644 73.51975,35.55335 106.066,52.97455 12.91157,-2.5231 36.04537,-8.6614 47.48797,-17.7453 0,0 -25.3682,-4.9742 -32.8295,-7.4613 -7.4612,-2.4871 -88.54007,-37.3062 -88.54007,-38.7985 z"
         id="path5098"
         sodipodi:nodetypes="ccccsc" />
      <path
         style="fill:url(#linearGradient5122);fill-opacity:1;stroke:#cccccc;stroke-width:2;stroke-linecap:butt;stroke-linejoin:miter;stroke-miterlimit:4;stroke-opacity:1;stroke-dasharray:none"
         d="m -252.33972,831.77549 c 0,0 105.41557,16.2175 112.13917,17.8984 13.1499,3.2875 28.5014,26.065 23.3776,52.9648 -7.3055,38.3538 -27.0303,51.869 -40.9107,54.0606 -8.0043,1.4452 -24.0728,-1.2968 -33.0305,-5.5721 l -86.19631,-36.8987 c -22.40453,-9.8925 -21.72759,-35.7974 -17.38581,-51.77 4.34178,-15.9725 19.72482,-32.1441 42.00655,-30.683 z"
         id="path5100"
         sodipodi:nodetypes="cssccczc" />
      <path
         transform="matrix(3.1527142,1.1477416,-0.63445312,2.1089241,-2964.7298,-2016.612)"
         d="m 1065.2259,810.63574 c 0,13.29245 -4.437,24.06811 -9.9103,24.06811 -5.4734,0 -9.9104,-10.77566 -9.9104,-24.06811 0,-13.29244 4.437,-24.0681 9.9104,-24.0681 5.4733,0 9.9103,10.77566 9.9103,24.0681 z"
         sodipodi:ry="24.068104"
         sodipodi:rx="9.9103956"
         sodipodi:cy="810.63574"
         sodipodi:cx="1055.3156"
         id="path5102"
         style="color:#000000;fill:url(#linearGradient5124);fill-opacity:1;stroke:#cccccc;stroke-width:0.89999998;stroke-linecap:round;stroke-linejoin:round;stroke-miterlimit:4;stroke-opacity:1;stroke-dasharray:none;stroke-dashoffset:0;marker:none;visibility:visible;display:inline;overflow:visible;enable-background:accumulate"
         sodipodi:type="arc" />
      <path
         transform="matrix(1.7368828,0.66317598,-0.34953078,1.2185564,-1699.4454,-781.07421)"
         d="m 1065.2259,810.63574 c 0,13.29245 -4.437,24.06811 -9.9103,24.06811 -5.4734,0 -9.9104,-10.77566 -9.9104,-24.06811 0,-13.29244 4.437,-24.0681 9.9104,-24.0681 5.4733,0 9.9103,10.77566 9.9103,24.0681 z"
         sodipodi:ry="24.068104"
         sodipodi:rx="9.9103956"
         sodipodi:cy="810.63574"
         sodipodi:cx="1055.3156"
         id="path5104"
         style="color:#000000;fill:none;stroke:#ececec;stroke-width:0.77655298;stroke-linecap:round;stroke-linejoin:round;stroke-miterlimit:4;stroke-opacity:1;stroke-dasharray:none;stroke-dashoffset:0;marker:none;visibility:visible;display:inline;overflow:visible;enable-background:accumulate"
         sodipodi:type="arc" />
      <path
         sodipodi:type="arc"
         style="color:#000000;fill:none;stroke:#ececec;stroke-width:0.66942757;stroke-linecap:round;stroke-linejoin:round;stroke-miterlimit:4;stroke-opacity:1;stroke-dasharray:none;stroke-dashoffset:0;marker:none;visibility:visible;display:inline;overflow:visible;enable-background:accumulate"
         id="path5106"
         sodipodi:cx="1055.3156"
         sodipodi:cy="810.63574"
         sodipodi:rx="9.9103956"
         sodipodi:ry="24.068104"
         d="m 1065.2259,810.63574 c 0,13.29245 -4.437,24.06811 -9.9103,24.06811 -5.4734,0 -9.9104,-10.77566 -9.9104,-24.06811 0,-13.29244 4.437,-24.0681 9.9104,-24.0681 5.4733,0 9.9103,10.77566 9.9103,24.0681 z"
         transform="matrix(2.0248442,0.76549551,-0.4074802,1.406564,-1956.3596,-1041.4593)" />
      <path
         sodipodi:type="arc"
         style="color:#000000;fill:url(#linearGradient5126);fill-opacity:1;stroke:#f5f5f5;stroke-width:0.89999998;stroke-linecap:round;stroke-linejoin:round;stroke-miterlimit:4;stroke-opacity:1;stroke-dasharray:none;stroke-dashoffset:0;marker:none;visibility:visible;display:inline;overflow:visible;enable-background:accumulate"
         id="path5108"
         sodipodi:cx="1055.3156"
         sodipodi:cy="810.63574"
         sodipodi:rx="9.9103956"
         sodipodi:ry="24.068104"
         d="m 1065.2259,810.63574 c 0,13.29245 -4.437,24.06811 -9.9103,24.06811 -5.4734,0 -9.9104,-10.77566 -9.9104,-24.06811 0,-13.29244 4.437,-24.0681 9.9104,-24.0681 5.4733,0 9.9103,10.77566 9.9103,24.0681 z"
         transform="matrix(2.84829,1.0494732,-0.57319071,1.9283602,-2692.9451,-1767.4494)" />
      <path
         transform="matrix(2.5457543,0.91137437,-0.51230835,1.6746099,-2423.2106,-1415.0993)"
         d="m 1065.2259,810.63574 c 0,13.29245 -4.437,24.06811 -9.9103,24.06811 -5.4734,0 -9.9104,-10.77566 -9.9104,-24.06811 0,-13.29244 4.437,-24.0681 9.9104,-24.0681 5.4733,0 9.9103,10.77566 9.9103,24.0681 z"
         sodipodi:ry="24.068104"
         sodipodi:rx="9.9103956"
         sodipodi:cy="810.63574"
         sodipodi:cx="1055.3156"
         id="path5110"
         style="color:#000000;fill:none;stroke:#ececec;stroke-width:0.62394595;stroke-linecap:round;stroke-linejoin:round;stroke-miterlimit:4;stroke-opacity:1;stroke-dasharray:none;stroke-dashoffset:0;marker:none;visibility:visible;display:inline;overflow:visible;enable-background:accumulate"
         sodipodi:type="arc" />
      <g
         transform="translate(-1201.6876,-210.35902)"
         id="g5112">
        <path
           transform="matrix(1.4171319,0.54506114,-0.28518403,1.0015256,-212.48145,-270.13386)"
           d="m 1065.2259,810.63574 c 0,13.29245 -4.437,24.06811 -9.9103,24.06811 -5.4734,0 -9.9104,-10.77566 -9.9104,-24.06811 0,-13.29244 4.437,-24.0681 9.9104,-24.0681 5.4733,0 9.9103,10.77566 9.9103,24.0681 z"
           sodipodi:ry="24.068104"
           sodipodi:rx="9.9103956"
           sodipodi:cy="810.63574"
           sodipodi:cx="1055.3156"
           id="path5114"
           style="color:#000000;fill:url(#linearGradient5128);fill-opacity:1;stroke:#cccccc;stroke-width:0.89999998;stroke-linecap:round;stroke-linejoin:round;stroke-miterlimit:4;stroke-opacity:1;stroke-dasharray:none;stroke-dashoffset:0;marker:none;visibility:visible;display:inline;overflow:visible;enable-background:accumulate"
           sodipodi:type="arc" />
        <path
           id="path5116"
           transform="matrix(0.95077124,0,0,0.98557111,50.971179,320.22817)"
           d="m 1055.75,783.96875 c -7.0398,-0.21381 -14.6206,7.66387 -17.9375,19.3125 -2.7323,9.59542 -1.8116,19.11455 1.8125,24.8125 -2.0519,-5.92567 -2.0937,-13.63935 0.375,-21.40625 3.9589,-12.45561 13.0104,-20.84471 21.4062,-20.53125 -0.8228,-0.67274 -1.7179,-1.22084 -2.6874,-1.59375 -0.9696,-0.37291 -1.9631,-0.56321 -2.9688,-0.59375 z"
           style="color:#000000;fill:url(#linearGradient5130);fill-opacity:1;stroke:none;stroke-width:1.12939656;marker:none;visibility:visible;display:inline;overflow:visible;filter:url(#filter3958-2);enable-background:accumulate" />
      </g>
    </g>
  </g>
</svg>
